# xmcd
#
# Track frame offsets: 
#        150
#        14582
#        28617
#        40700
#        53480
#        66970
#        79985
#        93052
#        105492
#        116872
#        130062
#        144187
#        158512
#        173962
#        188630
#        201790
#        215817
#        231642
#        245237
#        258700
#        272925
#
# Disc length: 3801 seconds
#
# Revision: 1
# Processed by: cddbd v1.5.2PL0 Copyright (c) Steve Scherf et al.
# Submitted via: ExactAudioCopy v1.1
#
DISCID=310ed715
DTITLE=Various Artist - Now That's Chicago
DYEAR=2003
DGENRE=Jazz
TTITLE0=The Hot Air-Men - Red Hot Chicago (mono)
TTITLE1=Frankie 'Half Pint' Jaxon and His Hot Shots - Fifteen Cents (mon
TTITLE1=o)
TTITLE2=Fletcher Henderson's Roseland Orchestra - Raisin' The Roof (mo
TTITLE2=no)
TTITLE3=The California Ramblers - She Knows Her Onions (mono)
TTITLE4=The Missouri Jazz Band - Nobody's Sweetheart (mono)
TTITLE5=Joe Turner and His Memphis Men - Freeze And Melt (mono)
TTITLE6=Rube Bloom and His Bayou Boys - The Man From The South (mono)
TTITLE7=Frank Melrose - Piano Breakdown (mono)
TTITLE8=Ukelele Ike (Cliff Edwards) - That's My Weakness Now (mono)
TTITLE9=Lee Morse - He's Still My Baby (mono)
TTITLE10=Sophie Tucker - 'Cause I Feel Lowdown (mono)
TTITLE11=Ethel Waters - No Man's Mama (mono)
TTITLE12=Jack Teagarden and His Orchestra - I Got The Ritz From The One 
TTITLE12=I Love (mono)
TTITLE13=The Goofus Five and Their Orchestra - Mama's Grown Young (mono)
TTITLE14=Annette Hanshaw - I Got 'It' But It Don't Do Me No Good (mono
TTITLE14=)
TTITLE15=Ruth Etting - Cigarettes, Cigars (mono)
TTITLE16=Clarence Williams and His Orchestra - Papa De Da Da (mono)
TTITLE17=Sarah Martin - Take Your Black Bottom Outside (mono)
TTITLE18=Don Redman and His Orchestra - Two-Time Man (mono)
TTITLE19=Clarence Williams' Jug Band - Chizzlin' Sam (mono)
TTITLE20=Cab Calloway and His Orchestra - Farewell Blues (mono)
EXTD=YEAR: 2003
EXTT0=
EXTT1=
EXTT2=
EXTT3=
EXTT4=
EXTT5=
EXTT6=
EXTT7=
EXTT8=
EXTT9=
EXTT10=
EXTT11=
EXTT12=
EXTT13=
EXTT14=
EXTT15=
EXTT16=
EXTT17=
EXTT18=
EXTT19=
EXTT20=
PLAYORDER=
